<?xml version="1.0" encoding="UTF-8"?>
<svg xmlns="http://www.w3.org/2000/svg" xmlns:xlink="http://www.w3.org/1999/xlink" width="50px" height="px" viewBox="0 0 50 70" version="1.1">
<g id="surface1">
<path style=" stroke:none;fill-rule:nonzero;fill:rgb(14.901961%,30.196078%,89.411765%);fill-opacity:1;" d="M 49.964844 13.757812 L 45.410156 64.371094 L 24.949219 70 L 4.546875 64.378906 L 0 13.757812 Z M 49.964844 13.757812 "/>
<path style=" stroke:none;fill-rule:nonzero;fill:rgb(16.078431%,39.607843%,94.509804%);fill-opacity:1;" d="M 41.515625 61.148438 L 45.40625 17.894531 L 24.980469 17.894531 L 24.980469 65.695312 Z M 41.515625 61.148438 "/>
<path style=" stroke:none;fill-rule:nonzero;fill:rgb(92.156863%,92.156863%,92.156863%);fill-opacity:1;" d="M 10.425781 36.671875 L 10.984375 42.878906 L 24.980469 42.878906 L 24.980469 36.671875 Z M 10.425781 36.671875 "/>
<path style=" stroke:none;fill-rule:nonzero;fill:rgb(92.156863%,92.156863%,92.156863%);fill-opacity:1;" d="M 24.980469 24.105469 L 9.296875 24.105469 L 9.867188 30.3125 L 24.980469 30.3125 Z M 24.980469 24.105469 "/>
<path style=" stroke:none;fill-rule:nonzero;fill:rgb(92.156863%,92.156863%,92.156863%);fill-opacity:1;" d="M 24.980469 59.253906 L 24.980469 52.792969 L 24.953125 52.800781 L 17.988281 50.933594 L 17.542969 45.984375 L 11.265625 45.984375 L 12.140625 55.730469 L 24.953125 59.261719 Z M 24.980469 59.253906 "/>
<path style=" stroke:none;fill-rule:nonzero;fill:rgb(0%,0%,0%);fill-opacity:1;" d="M 11.757812 0 L 19.335938 0 L 19.335938 3.144531 L 14.925781 3.144531 L 14.925781 6.289062 L 19.335938 6.289062 L 19.335938 9.433594 L 11.757812 9.433594 Z M 11.757812 0 "/>
<path style=" stroke:none;fill-rule:nonzero;fill:rgb(0%,0%,0%);fill-opacity:1;" d="M 20.847656 0 L 28.425781 0 L 28.425781 2.734375 L 24.015625 2.734375 L 24.015625 3.28125 L 28.425781 3.28125 L 28.425781 9.570312 L 20.847656 9.570312 L 20.847656 6.699219 L 25.257812 6.699219 L 25.257812 6.152344 L 20.847656 6.152344 Z M 20.847656 0 "/>
<path style=" stroke:none;fill-rule:nonzero;fill:rgb(0%,0%,0%);fill-opacity:1;" d="M 29.941406 0 L 37.515625 0 L 37.515625 2.734375 L 33.109375 2.734375 L 33.109375 3.28125 L 37.515625 3.28125 L 37.515625 9.570312 L 29.941406 9.570312 L 29.941406 6.699219 L 34.347656 6.699219 L 34.347656 6.152344 L 29.941406 6.152344 Z M 29.941406 0 "/>
<path style=" stroke:none;fill-rule:nonzero;fill:rgb(100%,100%,100%);fill-opacity:1;" d="M 32.664062 42.878906 L 31.9375 50.929688 L 24.960938 52.800781 L 24.960938 59.257812 L 37.78125 55.730469 L 37.878906 54.683594 L 39.347656 38.335938 L 39.5 36.671875 L 40.628906 24.105469 L 24.960938 24.105469 L 24.960938 30.3125 L 33.773438 30.3125 L 33.203125 36.671875 L 24.960938 36.671875 L 24.960938 42.878906 Z M 32.664062 42.878906 "/>
</g>
</svg>
